<svg xmlns="http://www.w3.org/2000/svg" width="45" height="41" viewBox="0 0 45 41" fill="none">
<path fillRule="evenodd" clipRule="evenodd" d="M31.2933 40.2679H5.889C4.12436 40.2679 3.21277 38.8202 3.83514 37.041L5.868 31.2298H28.6619C30.1325 31.2298 31.719 30.0135 32.2271 28.5405L33.645 24.4333C35.1716 20.0103 32.1578 19.8605 29.8815 19.2896L22.121 17.5197L23.8306 13.4746H37.1042C45.0712 13.4746 46.7531 14.9191 44.1335 22.2391L39.9806 33.8432C38.7161 37.3767 34.807 40.2679 31.2936 40.2679H31.2933Z" fill="#26BD49"/>
<path fillRule="evenodd" clipRule="evenodd" d="M13.9856 0H39.3899C41.1545 0 42.0661 1.44768 41.4437 3.22688L39.4109 9.03808H16.6169C15.1463 9.03808 13.5602 10.2544 13.0517 11.7274L11.6339 15.8346C10.1073 20.2576 13.1211 20.4074 15.3977 20.9782L23.1581 22.7482L21.4485 26.7933H8.17494C0.20799 26.7933 -1.47392 25.3488 1.14567 18.0291L5.29858 6.42464C6.56304 2.8912 10.4722 0 13.9856 0Z" fill="#003399"/>
</svg>